<?xml version="1.0" encoding="UTF-8" ?>
<!DOCTYPE svg PUBLIC "-//W3C//DTD SVG 1.1//EN" "http://www.w3.org/Graphics/SVG/1.1/DTD/svg11.dtd">
<svg width="512pt" height="512pt" viewBox="0 0 512 512" version="1.1" xmlns="http://www.w3.org/2000/svg">
<g id="#11DD2Cff">
<path fill="#11DD2C" opacity="1.00" d=" M 490.72 0.00 L 491.64 0.00 C 497.13 0.32 502.82 2.14 506.54 6.40 C 512.01 12.02 513.33 21.06 509.90 28.08 C 497.86 52.36 479.71 73.31 458.53 90.09 C 486.22 122.36 506.29 162.22 510.50 204.91 C 513.32 232.30 509.79 260.17 501.27 286.30 C 491.54 315.17 477.08 342.71 457.41 366.06 C 450.85 359.15 444.24 352.27 438.23 344.87 C 414.76 316.32 395.09 284.40 382.12 249.71 C 361.99 255.37 340.80 255.59 320.13 253.47 C 303.02 251.41 286.03 247.93 269.71 242.29 C 264.28 226.27 260.66 209.66 258.69 192.86 C 256.38 171.88 256.63 150.35 262.32 129.88 C 249.74 125.02 237.36 119.62 225.47 113.22 C 196.48 97.39 169.45 77.80 145.97 54.52 C 161.03 41.76 178.02 31.39 195.77 22.82 C 220.85 10.72 248.10 2.71 275.98 0.98 C 302.52 -0.85 329.41 3.29 354.27 12.73 C 382.84 23.42 408.45 40.89 430.95 61.31 C 447.63 49.31 461.71 33.67 471.89 15.82 C 473.50 12.85 475.15 9.89 477.23 7.22 C 480.61 3.18 485.60 0.91 490.72 0.00 Z" />
<path fill="#11DD2C" opacity="1.00" d=" M 97.16 124.22 C 110.43 113.76 125.87 106.32 141.88 101.08 C 165.99 121.05 192.16 138.78 220.47 152.25 C 220.61 154.16 220.60 156.06 220.43 157.96 C 219.33 173.95 220.70 189.98 222.62 205.85 C 197.85 223.82 167.56 234.25 136.95 234.84 C 105.46 235.34 73.80 223.22 51.28 201.11 C 56.00 170.86 72.78 142.73 97.16 124.22 Z" />
<path fill="#11DD2C" opacity="1.00" d=" M 46.41 246.02 C 64.21 257.47 84.00 265.92 104.80 270.05 C 99.35 280.57 94.30 291.39 91.23 302.88 C 85.09 323.39 83.90 345.19 86.47 366.39 C 58.29 373.24 27.48 370.56 1.53 357.33 C -2.34 326.38 6.57 294.19 25.22 269.25 C 31.27 260.64 38.77 253.21 46.41 246.02 Z" />
<path fill="#11DD2C" opacity="1.00" d=" M 149.86 272.24 C 178.73 269.84 206.85 260.33 231.69 245.51 C 234.32 254.22 237.62 262.69 240.84 271.19 C 249.34 274.33 257.74 277.75 266.46 280.25 C 252.17 304.56 242.58 331.83 240.01 359.99 C 239.72 361.33 240.05 362.95 239.23 364.13 C 216.07 382.01 186.30 391.67 157.01 388.97 C 147.33 388.50 137.74 386.55 128.56 383.47 C 118.09 352.21 121.45 316.53 137.98 287.96 C 140.61 282.79 144.09 278.15 147.39 273.41 C 147.97 272.56 148.79 272.17 149.86 272.24 Z" />
<path fill="#11DD2C" opacity="1.00" d=" M 287.30 324.22 C 291.84 311.72 298.50 300.11 306.19 289.29 C 322.68 291.51 339.38 292.72 356.01 291.45 C 357.49 291.52 359.82 290.65 360.29 292.78 C 373.89 320.49 391.12 346.37 410.91 370.04 C 405.89 385.90 398.41 401.07 388.26 414.28 C 369.71 438.93 341.39 455.97 310.89 460.72 C 297.40 446.88 287.48 429.61 282.10 411.05 C 273.57 382.61 276.71 351.67 287.30 324.22 Z" />
<path fill="#11DD2C" opacity="1.00" d=" M 47.05 408.07 C 63.59 409.24 80.22 407.25 96.29 403.33 C 97.55 406.22 98.73 409.14 99.92 412.06 C 102.82 413.29 105.75 414.46 108.66 415.67 C 103.74 435.30 102.39 455.78 104.76 475.87 C 105.33 479.83 106.09 483.78 106.42 487.78 C 94.21 492.89 81.37 497.00 68.07 497.80 C 51.79 499.38 35.07 497.82 19.56 492.48 C 10.03 464.33 12.15 432.73 24.22 405.68 C 31.85 406.28 39.35 408.21 47.05 408.07 Z" />
<path fill="#11DD2C" opacity="1.00" d=" M 209.96 420.57 C 221.12 417.49 231.65 412.53 241.89 407.19 C 246.13 427.98 254.55 447.80 266.01 465.62 C 256.48 475.98 245.99 485.58 233.87 492.84 C 210.45 507.37 182.02 513.95 154.64 510.46 C 141.42 484.51 138.77 453.74 145.57 425.56 C 167.08 428.19 189.17 426.82 209.96 420.57 Z" />
</g>
</svg>
